<svg xmlns="http://www.w3.org/2000/svg" viewBox="0 0 1400 1060" font-family="Inter, Segoe UI, Arial, sans-serif">
<rect width="1400" height="1060" fill="#0b1220"/>
<defs><marker id="ar" markerWidth="9" markerHeight="9" refX="7" refY="3" orient="auto"><path d="M0,0 L7,3 L0,6 Z" fill="#94a3b8"/></marker><marker id="arb" markerWidth="9" markerHeight="9" refX="7" refY="3" orient="auto"><path d="M0,0 L7,3 L0,6 Z" fill="#38bdf8"/></marker><marker id="aro" markerWidth="9" markerHeight="9" refX="7" refY="3" orient="auto"><path d="M0,0 L7,3 L0,6 Z" fill="#f59e0b"/></marker><marker id="arr" markerWidth="9" markerHeight="9" refX="7" refY="3" orient="auto"><path d="M0,0 L7,3 L0,6 Z" fill="#f87171"/></marker><marker id="arc" markerWidth="9" markerHeight="9" refX="7" refY="3" orient="auto"><path d="M0,0 L7,3 L0,6 Z" fill="#22d3ee"/></marker></defs>
<text x="700.0" y="34" font-size="21" font-weight="800" text-anchor="middle" fill="#f8fafc">PROACT Evaluation Board — System Architecture &amp; Signal Routing</text>
<text x="700.0" y="56" font-size="11.5" font-weight="600" text-anchor="middle" fill="#94a3b8">Each interface jumper is a 2:1 selector: drive the PROACT pin from the on-board USB bridge module OR from the ChipWhisperer CW308.</text>
<rect x="24" y="360" width="80" height="90" rx="10" fill="#0e1729" stroke="#334155" stroke-width="2"/>
<text x="64.0" y="401.0" font-size="13" font-weight="800" text-anchor="middle" fill="#f1f5f9">USB</text>
<text x="64.0" y="418.0" font-size="10" font-weight="600" text-anchor="middle" fill="#94a3b8">Host PC</text>
<rect x="150" y="150" width="170" height="78" rx="10" fill="#052e2b" stroke="#14b8a6" stroke-width="2"/>
<text x="235.0" y="185.0" font-size="15" font-weight="800" text-anchor="middle" fill="#f1f5f9">MCP2200</text>
<text x="235.0" y="202.0" font-size="10" font-weight="600" text-anchor="middle" fill="#94a3b8">USB ↔ UART bridge</text>
<rect x="150" y="330" width="170" height="118" rx="10" fill="#0b213f" stroke="#3b82f6" stroke-width="2"/>
<text x="235.0" y="385.0" font-size="15" font-weight="800" text-anchor="middle" fill="#f1f5f9">MCP2210</text>
<text x="235.0" y="402.0" font-size="10" font-weight="600" text-anchor="middle" fill="#94a3b8">USB ↔ SPI + GPIO bridge</text>
<line x1="104" y1="388" x2="150" y2="210" stroke="#64748b" stroke-width="2" marker-end="url(#ar)"/>
<line x1="104" y1="420" x2="150" y2="388" stroke="#64748b" stroke-width="2" marker-end="url(#ar)"/>
<path d="M400,150 L400,220 L496,200.4 L496,169.6 Z" fill="#2e1065" fill-opacity="0.55" stroke="#a78bfa" stroke-width="2"/>
<text x="440.32" y="189.0" font-size="12" font-weight="800" text-anchor="middle" fill="#ede9fe">JP3/JP5</text>
<path d="M400,300 L400,370 L496,350.4 L496,319.6 Z" fill="#2e1065" fill-opacity="0.55" stroke="#a78bfa" stroke-width="2"/>
<text x="440.32" y="339.0" font-size="12" font-weight="800" text-anchor="middle" fill="#ede9fe">JP4/JP6</text>
<path d="M400,400 L400,462 L496,444.64 L496,417.36 Z" fill="#2e1065" fill-opacity="0.55" stroke="#a78bfa" stroke-width="2"/>
<text x="440.32" y="435.0" font-size="12" font-weight="800" text-anchor="middle" fill="#ede9fe">J6</text>
<line x1="320" y1="180" x2="400" y2="171.0" stroke="#14b8a6" stroke-width="2" marker-end="url(#ar)"/>
<line x1="320" y1="372" x2="400" y2="321.0" stroke="#3b82f6" stroke-width="2" marker-end="url(#ar)"/>
<line x1="320" y1="410" x2="400" y2="418.6" stroke="#3b82f6" stroke-width="2" marker-end="url(#ar)"/>
<line x1="366" y1="221.0" x2="400" y2="199.0" stroke="#38bdf8" stroke-width="2" marker-end="url(#arb)" stroke-dasharray="4 3"/>
<text x="360" y="229.0" font-size="8.5" font-weight="700" text-anchor="end" fill="#7dd3fc">CW308</text>
<line x1="366" y1="371.0" x2="400" y2="349.0" stroke="#38bdf8" stroke-width="2" marker-end="url(#arb)" stroke-dasharray="4 3"/>
<text x="360" y="379.0" font-size="8.5" font-weight="700" text-anchor="end" fill="#7dd3fc">CW308</text>
<line x1="366" y1="465.4" x2="400" y2="443.4" stroke="#38bdf8" stroke-width="2" marker-end="url(#arb)" stroke-dasharray="4 3"/>
<text x="360" y="473.4" font-size="8.5" font-weight="700" text-anchor="end" fill="#7dd3fc">CW GPIO3</text>
<rect x="560" y="110" width="230" height="522" rx="10" fill="#111827" stroke="#64748b" stroke-width="2"/>
<text x="675.0" y="376.0" font-size="14" font-weight="800" text-anchor="middle" fill="#f1f5f9"></text>
<text x="675.0" y="140" font-size="17" font-weight="800" text-anchor="middle" fill="#f8fafc">PROACT ASIC</text>
<text x="675.0" y="158" font-size="10.5" font-weight="600" text-anchor="middle" fill="#94a3b8">DIP-28 · socket U1</text>
<rect x="572" y="176" width="206" height="38" rx="6" fill="#14b8a6" fill-opacity="0.13" stroke="#14b8a6" stroke-width="1.3"/>
<text x="582" y="191" font-size="11.5" font-weight="800" text-anchor="start" fill="#f1f5f9">UART</text>
<text x="582" y="204" font-size="8.4" font-weight="500" text-anchor="start" fill="#94a3b8">2 TX · 3 RX</text>
<rect x="572" y="222" width="206" height="38" rx="6" fill="#3b82f6" fill-opacity="0.13" stroke="#3b82f6" stroke-width="1.3"/>
<text x="582" y="237" font-size="11.5" font-weight="800" text-anchor="start" fill="#f1f5f9">SPI</text>
<text x="582" y="250" font-size="8.4" font-weight="500" text-anchor="start" fill="#94a3b8">SIn 17 · sck 19</text>
<rect x="572" y="268" width="206" height="38" rx="6" fill="#3b82f6" fill-opacity="0.13" stroke="#3b82f6" stroke-width="1.3"/>
<text x="582" y="283" font-size="11.5" font-weight="800" text-anchor="start" fill="#f1f5f9">S-Sel</text>
<text x="582" y="296" font-size="8.4" font-weight="500" text-anchor="start" fill="#94a3b8">SSel_n 18</text>
<rect x="572" y="314" width="206" height="50" rx="6" fill="#f87171" fill-opacity="0.13" stroke="#f87171" stroke-width="1.3"/>
<text x="582" y="329" font-size="11.5" font-weight="800" text-anchor="start" fill="#f1f5f9">Resets</text>
<text x="582" y="342" font-size="8.4" font-weight="500" text-anchor="start" fill="#94a3b8">1 B_RST_N (SW1/JP1) · 4 spi_global_RST_N</text>
<text x="582" y="353" font-size="8.4" font-weight="500" text-anchor="start" fill="#94a3b8">5 C_RST_N · 20 spi_c_RST_N</text>
<rect x="572" y="372" width="206" height="50" rx="6" fill="#fb923c" fill-opacity="0.13" stroke="#fb923c" stroke-width="1.3"/>
<text x="582" y="387" font-size="11.5" font-weight="800" text-anchor="start" fill="#f1f5f9">Debug taps</text>
<text x="582" y="400" font-size="8.4" font-weight="500" text-anchor="start" fill="#94a3b8">out[0]/[5]/[6]/[11] → pins 6/11/12/21</text>
<text x="582" y="411" font-size="8.4" font-weight="500" text-anchor="start" fill="#94a3b8">spare_io pin 10 (input)</text>
<rect x="572" y="430" width="206" height="50" rx="6" fill="#a78bfa" fill-opacity="0.13" stroke="#a78bfa" stroke-width="1.3"/>
<text x="582" y="445" font-size="11.5" font-weight="800" text-anchor="start" fill="#f1f5f9">Triggers</text>
<text x="582" y="458" font-size="8.4" font-weight="500" text-anchor="start" fill="#94a3b8">trigger_Out 14 · out[1] 13 · out[8] 27</text>
<text x="582" y="469" font-size="8.4" font-weight="500" text-anchor="start" fill="#94a3b8">trigger_in 23 ← CW · via J10/J6</text>
<rect x="572" y="488" width="206" height="38" rx="6" fill="#84cc16" fill-opacity="0.13" stroke="#84cc16" stroke-width="1.3"/>
<text x="582" y="503" font-size="11.5" font-weight="800" text-anchor="start" fill="#f1f5f9">Core probe</text>
<text x="582" y="516" font-size="8.4" font-weight="500" text-anchor="start" fill="#94a3b8">out_pins[2:4] → pins 24–26 · JP2</text>
<rect x="572" y="534" width="206" height="38" rx="6" fill="#f59e0b" fill-opacity="0.13" stroke="#f59e0b" stroke-width="1.3"/>
<text x="582" y="549" font-size="11.5" font-weight="800" text-anchor="start" fill="#f1f5f9">Power</text>
<text x="582" y="562" font-size="8.4" font-weight="500" text-anchor="start" fill="#94a3b8">VDDIO 7,22 · VDD core 0.8 V 15,28</text>
<rect x="572" y="580" width="206" height="38" rx="6" fill="#22d3ee" fill-opacity="0.13" stroke="#22d3ee" stroke-width="1.3"/>
<text x="582" y="595" font-size="11.5" font-weight="800" text-anchor="start" fill="#f1f5f9">Clock</text>
<text x="582" y="608" font-size="8.4" font-weight="500" text-anchor="start" fill="#94a3b8">SYSCLK_P pin 9 ← J12 · echo → J7.5</text>
<line x1="496" y1="185" x2="572" y2="195.0" stroke="#14b8a6" stroke-width="2" marker-end="url(#ar)"/>
<line x1="496" y1="335" x2="572" y2="241.0" stroke="#3b82f6" stroke-width="2" marker-end="url(#ar)"/>
<line x1="496" y1="431" x2="572" y2="287.0" stroke="#3b82f6" stroke-width="2" marker-end="url(#ar)"/>
<path d="M235,448 C235,555 480,500 572,342.0" fill="none" stroke="#f87171" stroke-width="2" marker-end="url(#arr)"/>
<text x="400" y="527" font-size="9" font-weight="600" text-anchor="middle" fill="#fca5a5">MCP2210 GPIO2/5/1 → pins 4/5/20 (direct)</text>
<rect x="960" y="110" width="330" height="250" rx="10" fill="#3f1d0b" stroke="#f59e0b" stroke-width="2"/>
<text x="1125.0" y="138" font-size="17" font-weight="800" text-anchor="middle" fill="#fef3c7">ChipWhisperer CW308</text>
<text x="1125.0" y="156" font-size="10" font-weight="600" text-anchor="middle" fill="#fdba74">side-channel capture / glitch platform</text>
<text x="1125.0" y="178" font-size="11" font-weight="700" text-anchor="middle" fill="#fed7aa">Edge connectors  J7 · J8 · J9</text>
<rect x="980" y="190" width="290" height="72" rx="6" fill="#0b1220" fill-opacity="0.5" stroke="#b45309" stroke-width="1.2"/>
<text x="1125.0" y="210" font-size="10" font-weight="600" text-anchor="middle" fill="#fdba74">UART · SPI/GPIO · nRST · CW clk J7.3 · clk echo J7.5</text>
<text x="1125.0" y="228" font-size="10" font-weight="600" text-anchor="middle" fill="#fdba74">3.3 V (J8.14) → VDDIO · VREF J7.20</text>
<text x="1125.0" y="246" font-size="10" font-weight="600" text-anchor="middle" fill="#fdba74">shunt J8.2/J8.3 · filter J8.5/6/8 · TRIG in</text>
<rect x="980" y="278" width="290" height="60" rx="6" fill="#450a0a" fill-opacity="0.4" stroke="#dc2626" stroke-width="1"/>
<text x="1125.0" y="298" font-size="9.5" font-weight="700" text-anchor="middle" fill="#fca5a5">CW308 status LEDs (driven by resets):</text>
<text x="1125.0" y="316" font-size="9.5" font-weight="600" text-anchor="middle" fill="#fecaca">LED1 = SPI_RST · LED2 = CRST · LED3 = GRST</text>
<path d="M960,200 C620,60 300,70 398,197.0" fill="none" stroke="#38bdf8" stroke-width="1.6" stroke-dasharray="5 4" opacity="0.7"/>
<text x="515" y="86" font-size="9" font-weight="600" text-anchor="middle" fill="#7dd3fc">CW308 shared-signal bus (alt source)</text>
<rect x="960" y="412" width="210" height="74" rx="10" fill="#2e1065" stroke="#a78bfa" stroke-width="2"/>
<text x="1065.0" y="445.0" font-size="13.5" font-weight="800" text-anchor="middle" fill="#f1f5f9">J10 · Trigger select</text>
<text x="1065.0" y="462.0" font-size="10" font-weight="600" text-anchor="middle" fill="#94a3b8">out 14/13/27 → CW TRIG · in 23</text>
<path d="M790,455.0 C860,455.0 900,450 960,449" fill="none" stroke="#a78bfa" stroke-width="2" marker-end="url(#ar)"/>
<line x1="1065" y1="412" x2="1075" y2="364" stroke="#a78bfa" stroke-width="2" marker-end="url(#ar)"/>
<rect x="570" y="660" width="330" height="110" rx="10" fill="#7f1d1d" stroke="#f87171" stroke-width="2"/>
<text x="735.0" y="720.0" font-size="14" font-weight="800" text-anchor="middle" fill="#f1f5f9"></text>
<text x="735" y="684" font-size="12.5" font-weight="800" text-anchor="middle" fill="#fecaca">LEDs + J1 (SPI_DBG) — live monitor</text>
<text x="735" y="704" font-size="9" font-weight="600" text-anchor="middle" fill="#fca5a5">D1 alive heartbeat — yellow-green</text>
<text x="735" y="719" font-size="9" font-weight="600" text-anchor="middle" fill="#fca5a5">D2 · D4–D6 debug taps (yellow) · D3 spare_io (orange)</text>
<text x="735" y="734" font-size="9" font-weight="600" text-anchor="middle" fill="#fca5a5">D7–D10 reset LEDs — red, VDDIO-sourced,</text>
<text x="735" y="749" font-size="9" font-weight="600" text-anchor="middle" fill="#fca5a5">lit while reset asserted (LOW)</text>
<path d="M790,397.0 C856,415 858,600 826,656" fill="none" stroke="#fb923c" stroke-width="2" marker-end="url(#ar)"/>
<rect x="380" y="660" width="140" height="66" rx="10" fill="#052e2b" stroke="#14b8a6" stroke-width="2"/>
<text x="450.0" y="689.0" font-size="13" font-weight="800" text-anchor="middle" fill="#f1f5f9">S1  DIP×7</text>
<text x="450.0" y="706.0" font-size="10" font-weight="600" text-anchor="middle" fill="#94a3b8">read-back enables</text>
<line x1="570" y1="700" x2="522" y2="700" stroke="#fb923c" stroke-width="2" marker-end="url(#ar)"/>
<path d="M420,660 C380,600 235,555 235,452" fill="none" stroke="#14b8a6" stroke-width="1.8" marker-end="url(#ar)" stroke-dasharray="5 3"/>
<text x="300" y="592" font-size="9" font-weight="600" text-anchor="middle" fill="#5eead4">X1/GPIO read-back</text>
<rect x="40" y="770" width="500" height="246" rx="10" fill="#0e1729" stroke="#22d3ee" stroke-width="2"/>
<text x="290.0" y="792" font-size="13" font-weight="800" text-anchor="middle" fill="#a5f3fc">Clock Select — J12 → SYSCLK_P (pin 9)</text>
<text x="290.0" y="805" font-size="7.5" font-weight="500" text-anchor="middle" fill="#67e8f9">(compact view — see the clock-tree diagram for details)</text>
<rect x="60" y="812" width="170" height="44" rx="10" fill="#083344" stroke="#22d3ee" stroke-width="2"/>
<text x="145.0" y="830.0" font-size="11.5" font-weight="800" text-anchor="middle" fill="#f1f5f9">J11 SMA jack</text>
<text x="145.0" y="847.0" font-size="10" font-weight="600" text-anchor="middle" fill="#94a3b8">external clock (silk: BNC)</text>
<rect x="60" y="864" width="170" height="44" rx="10" fill="#083344" stroke="#22d3ee" stroke-width="2"/>
<text x="145.0" y="882.0" font-size="11.5" font-weight="800" text-anchor="middle" fill="#f1f5f9">Y1 50 MHz osc</text>
<text x="145.0" y="899.0" font-size="10" font-weight="600" text-anchor="middle" fill="#94a3b8">VDDIO · via R22 20 Ω</text>
<rect x="60" y="916" width="170" height="44" rx="10" fill="#0b213f" stroke="#38bdf8" stroke-width="2"/>
<text x="145.0" y="934.0" font-size="11.5" font-weight="800" text-anchor="middle" fill="#f1f5f9">CW clock</text>
<text x="145.0" y="951.0" font-size="10" font-weight="600" text-anchor="middle" fill="#94a3b8">via J7.3 CLKFB + R8 100 Ω</text>
<path d="M300,812 L300,884 L390,863.84 L390,832.16 Z" fill="#2e1065" fill-opacity="0.55" stroke="#a78bfa" stroke-width="2"/>
<text x="337.8" y="852.0" font-size="12" font-weight="800" text-anchor="middle" fill="#ede9fe">J12</text>
<line x1="230" y1="834" x2="300" y2="833.6" stroke="#22d3ee" stroke-width="2" marker-end="url(#arc)"/>
<line x1="230" y1="886" x2="300" y2="862.4" stroke="#22d3ee" stroke-width="2" marker-end="url(#arc)"/>
<text x="263" y="826" font-size="8" font-weight="700" text-anchor="middle" fill="#c4b5fd">link 1-2</text>
<text x="259" y="897" font-size="8" font-weight="700" text-anchor="middle" fill="#c4b5fd">link 3-4</text>
<path d="M230,938 C272,938 290,908 300,880" fill="none" stroke="#38bdf8" stroke-width="2" marker-end="url(#arb)"/>
<text x="238" y="956" font-size="7.5" font-weight="600" text-anchor="start" fill="#7dd3fc">link 5-6 · CW clock via J7.3 + R8</text>
<line x1="390" y1="848.0" x2="460" y2="848" stroke="#22d3ee" stroke-width="2"/>
<path d="M460,848 C505,848 535,700 571,604.0" fill="none" stroke="#22d3ee" stroke-width="2" marker-end="url(#arc)"/>
<line x1="462" y1="852" x2="374" y2="958" stroke="#22d3ee" stroke-width="1.6" stroke-dasharray="4 3" marker-end="url(#arc)"/>
<text x="374" y="974" font-size="9" font-weight="700" text-anchor="middle" fill="#a5f3fc">J7.5: clock echo to CW (always)</text>
<text x="60" y="990" font-size="8.6" font-weight="600" text-anchor="start" fill="#fbbf24">• fit exactly ONE J12 source link — 1-2 · 3-4 · 5-6</text>
<text x="60" y="1004" font-size="8.6" font-weight="600" text-anchor="start" fill="#fbbf24">• leave CW308 J3 unpopulated — it drives J7.5 (clock echo) and would fight the source</text>
<rect x="900" y="540" width="480" height="316" rx="10" fill="#1c1917" stroke="#f59e0b" stroke-width="2"/>
<text x="1140.0" y="703.0" font-size="14" font-weight="800" text-anchor="middle" fill="#f1f5f9"></text>
<text x="1140" y="566" font-size="13" font-weight="800" text-anchor="middle" fill="#fdba74">Vcore Power &amp; Current-Sense Path</text>
<text x="991" y="584" font-size="8" font-weight="600" text-anchor="middle" fill="#fdba74">VDDIO in</text>
<rect x="916" y="590" width="150" height="60" rx="10" fill="#3f1d0b" stroke="#b45309" stroke-width="2"/>
<text x="991.0" y="616.0" font-size="12" font-weight="800" text-anchor="middle" fill="#f1f5f9">U2 TPS74801</text>
<text x="991.0" y="633.0" font-size="10" font-weight="600" text-anchor="middle" fill="#94a3b8">trim R20/R21: 0.80–0.90 V</text>
<rect x="1102" y="590" width="74" height="60" rx="10" fill="#3f1d0b" stroke="#b45309" stroke-width="2"/>
<text x="1139.0" y="616.0" font-size="12" font-weight="800" text-anchor="middle" fill="#f1f5f9">JP7</text>
<text x="1139.0" y="633.0" font-size="10" font-weight="600" text-anchor="middle" fill="#94a3b8">route select</text>
<rect x="1204" y="590" width="74" height="60" rx="10" fill="#3f1d0b" stroke="#b45309" stroke-width="2"/>
<text x="1241.0" y="616.0" font-size="11" font-weight="800" text-anchor="middle" fill="#f1f5f9">R7 0.01 Ω</text>
<text x="1241.0" y="633.0" font-size="10" font-weight="600" text-anchor="middle" fill="#94a3b8">shunt</text>
<rect x="1302" y="590" width="66" height="60" rx="10" fill="#0e1729" stroke="#0891b2" stroke-width="2"/>
<text x="1335.0" y="616.0" font-size="11" font-weight="800" text-anchor="middle" fill="#f1f5f9">Vcore</text>
<text x="1335.0" y="633.0" font-size="10" font-weight="600" text-anchor="middle" fill="#94a3b8">pins 15/28</text>
<line x1="1066" y1="608" x2="1102" y2="608" stroke="#f59e0b" stroke-width="2" marker-end="url(#aro)"/>
<text x="1084" y="583" font-size="8" font-weight="700" text-anchor="middle" fill="#fdba74">link 2-3 · direct</text>
<line x1="1176" y1="620" x2="1204" y2="620" stroke="#f59e0b" stroke-width="2" marker-end="url(#aro)"/>
<line x1="1278" y1="620" x2="1302" y2="620" stroke="#f59e0b" stroke-width="2" marker-end="url(#aro)"/>
<rect x="960" y="682" width="220" height="46" rx="10" fill="#3f1d0b" stroke="#b45309" stroke-width="2"/>
<text x="1070.0" y="701.0" font-size="11.5" font-weight="800" text-anchor="middle" fill="#f1f5f9">CW308 L-C filter</text>
<text x="1070.0" y="718.0" font-size="10" font-weight="600" text-anchor="middle" fill="#94a3b8">J8.8 FILTIN → return J8.5/J8.6</text>
<line x1="990" y1="650" x2="990" y2="682" stroke="#f59e0b" stroke-width="2" marker-end="url(#aro)"/>
<line x1="1140" y1="682" x2="1140" y2="650" stroke="#f59e0b" stroke-width="2" marker-end="url(#aro)"/>
<text x="1065" y="670" font-size="8" font-weight="700" text-anchor="middle" fill="#fdba74">link 1-2 · filtered</text>
<text x="1140" y="752" font-size="9" font-weight="600" text-anchor="middle" fill="#fdba74">CW308 reads ΔV across R7 (J8.3 SHUNTH / J8.2 SHUNTL) → power trace</text>
<text x="1140" y="768" font-size="9" font-weight="600" text-anchor="middle" fill="#fdba74">die-side Vcore net is capacitor-free → shunt sees instantaneous die current</text>
<rect x="920" y="786" width="440" height="54" rx="9" fill="#3f1d0b" stroke="#fbbf24" stroke-width="2"/>
<text x="1140" y="808" font-size="12" font-weight="800" text-anchor="middle" fill="#fde68a">SET 0.8 V BEFORE INSERTING THE CHIP</text>
<text x="1140" y="826" font-size="9.5" font-weight="600" text-anchor="middle" fill="#fdba74">trim R20 · measure at the Vcore test point · JP7 at 2-3</text>
<path d="M1030,360 C930,420 806,466 792,548.0" fill="none" stroke="#f59e0b" stroke-width="2" marker-end="url(#aro)"/>
<text x="940" y="506" font-size="9" font-weight="600" text-anchor="middle" fill="#fdba74">CW308 J8.14 · 3.3 V</text>
<text x="940" y="520" font-size="9" font-weight="600" text-anchor="middle" fill="#fdba74">→ VDDIO 7/22 · bridges · U2</text>
<path d="M1335,586 C1150,470 900,560 794,560.0" fill="none" stroke="#f59e0b" stroke-width="1.8" marker-end="url(#aro)" stroke-dasharray="4 3"/>
<text x="1100" y="512" font-size="9" font-weight="600" text-anchor="middle" fill="#fdba74">Vcore 0.8 V → pins 15/28</text>
<rect x="30" y="1029" width="14" height="14" rx="3" fill="#14b8a6"/>
<text x="50" y="1040" font-size="10" font-weight="600" text-anchor="start" fill="#cbd5e1">UART</text>
<rect x="140" y="1029" width="14" height="14" rx="3" fill="#3b82f6"/>
<text x="160" y="1040" font-size="10" font-weight="600" text-anchor="start" fill="#cbd5e1">SPI</text>
<rect x="245" y="1029" width="14" height="14" rx="3" fill="#f87171"/>
<text x="265" y="1040" font-size="10" font-weight="600" text-anchor="start" fill="#cbd5e1">Reset</text>
<rect x="360" y="1029" width="14" height="14" rx="3" fill="#fb923c"/>
<text x="380" y="1040" font-size="10" font-weight="600" text-anchor="start" fill="#cbd5e1">Debug</text>
<rect x="475" y="1029" width="14" height="14" rx="3" fill="#a78bfa"/>
<text x="495" y="1040" font-size="10" font-weight="600" text-anchor="start" fill="#cbd5e1">Trigger / jumper</text>
<rect x="645" y="1029" width="14" height="14" rx="3" fill="#f59e0b"/>
<text x="665" y="1040" font-size="10" font-weight="600" text-anchor="start" fill="#cbd5e1">Power</text>
<rect x="760" y="1029" width="14" height="14" rx="3" fill="#22d3ee"/>
<text x="780" y="1040" font-size="10" font-weight="600" text-anchor="start" fill="#cbd5e1">Clock</text>
<rect x="875" y="1029" width="14" height="14" rx="3" fill="#38bdf8"/>
<text x="895" y="1040" font-size="10" font-weight="600" text-anchor="start" fill="#cbd5e1">CW308 bus</text>
</svg>