<svg xmlns="http://www.w3.org/2000/svg" viewBox="0 0 1020 722" font-family="Inter, Segoe UI, Arial, sans-serif">
<rect width="1020" height="722" fill="#0b1220"/>
<text x="510.0" y="40" font-size="22" font-weight="800" text-anchor="middle" fill="#f8fafc">PROACT ASIC — DIP-28 Pinout</text>
<text x="510.0" y="64" font-size="12" font-weight="600" text-anchor="middle" fill="#94a3b8">socket U1 · pin 1 at top-left (notch up) · verified against board netlist</text>
<rect x="300" y="96" width="150" height="476" rx="10" fill="#111827" stroke="#475569" stroke-width="2"/>
<path d="M 359.0,96 a16,16 0 0 0 32,0" fill="#0b1220" stroke="#475569" stroke-width="2"/>
<text x="375.0" y="328.0" font-size="17" font-weight="800" text-anchor="middle" fill="#e2e8f0">PROACT</text>
<text x="375.0" y="348.0" font-size="11" font-weight="600" text-anchor="middle" fill="#64748b">U1 · DIP-28</text>
<line x1="284" y1="113.0" x2="300" y2="113.0" stroke="#64748b" stroke-width="2"/>
<circle cx="284" cy="113.0" r="4" fill="#94a3b8"/>
<rect x="304" y="104.0" width="20" height="18" rx="3" fill="#1e293b"/>
<text x="314" y="117.0" font-size="11" font-weight="700" text-anchor="middle" fill="#cbd5e1">1</text>
<rect x="28" y="100.0" width="250" height="26" rx="5" fill="#dc2626" fill-opacity="0.16" stroke="#dc2626" stroke-width="1.6"/>
<text x="38" y="112.0" font-size="12.5" font-weight="800" fill="#f1f5f9">B_RST_N</text>
<text x="38" y="124.0" font-size="8.5" font-weight="500" fill="#94a3b8">Button reset (SW1 / JP1→CW nRST)</text>
<line x1="284" y1="147.0" x2="300" y2="147.0" stroke="#64748b" stroke-width="2"/>
<circle cx="284" cy="147.0" r="4" fill="#94a3b8"/>
<rect x="304" y="138.0" width="20" height="18" rx="3" fill="#1e293b"/>
<text x="314" y="151.0" font-size="11" font-weight="700" text-anchor="middle" fill="#cbd5e1">2</text>
<rect x="28" y="134.0" width="250" height="26" rx="5" fill="#0f766e" fill-opacity="0.16" stroke="#0f766e" stroke-width="1.6"/>
<text x="38" y="146.0" font-size="12.5" font-weight="800" fill="#f1f5f9">UART_TX</text>
<text x="38" y="158.0" font-size="8.5" font-weight="500" fill="#94a3b8">To MCP2200 RX or CW308 (via JP3)</text>
<line x1="284" y1="181.0" x2="300" y2="181.0" stroke="#64748b" stroke-width="2"/>
<circle cx="284" cy="181.0" r="4" fill="#94a3b8"/>
<rect x="304" y="172.0" width="20" height="18" rx="3" fill="#1e293b"/>
<text x="314" y="185.0" font-size="11" font-weight="700" text-anchor="middle" fill="#cbd5e1">3</text>
<rect x="28" y="168.0" width="250" height="26" rx="5" fill="#0f766e" fill-opacity="0.16" stroke="#0f766e" stroke-width="1.6"/>
<text x="38" y="180.0" font-size="12.5" font-weight="800" fill="#f1f5f9">UART_RX</text>
<text x="38" y="192.0" font-size="8.5" font-weight="500" fill="#94a3b8">From MCP2200 TX or CW308 (via JP5)</text>
<line x1="284" y1="215.0" x2="300" y2="215.0" stroke="#64748b" stroke-width="2"/>
<circle cx="284" cy="215.0" r="4" fill="#94a3b8"/>
<rect x="304" y="206.0" width="20" height="18" rx="3" fill="#1e293b"/>
<text x="314" y="219.0" font-size="11" font-weight="700" text-anchor="middle" fill="#cbd5e1">4</text>
<rect x="28" y="202.0" width="250" height="26" rx="5" fill="#dc2626" fill-opacity="0.16" stroke="#dc2626" stroke-width="1.6"/>
<text x="38" y="214.0" font-size="12.5" font-weight="800" fill="#f1f5f9">GRST</text>
<text x="38" y="226.0" font-size="8.5" font-weight="500" fill="#94a3b8">Global reset (MCP2210 GPIO2)</text>
<line x1="284" y1="249.0" x2="300" y2="249.0" stroke="#64748b" stroke-width="2"/>
<circle cx="284" cy="249.0" r="4" fill="#94a3b8"/>
<rect x="304" y="240.0" width="20" height="18" rx="3" fill="#1e293b"/>
<text x="314" y="253.0" font-size="11" font-weight="700" text-anchor="middle" fill="#cbd5e1">5</text>
<rect x="28" y="236.0" width="250" height="26" rx="5" fill="#dc2626" fill-opacity="0.16" stroke="#dc2626" stroke-width="1.6"/>
<text x="38" y="248.0" font-size="12.5" font-weight="800" fill="#f1f5f9">CRST</text>
<text x="38" y="260.0" font-size="8.5" font-weight="500" fill="#94a3b8">Controller reset (MCP2210 GPIO5)</text>
<line x1="284" y1="283.0" x2="300" y2="283.0" stroke="#64748b" stroke-width="2"/>
<circle cx="284" cy="283.0" r="4" fill="#94a3b8"/>
<rect x="304" y="274.0" width="20" height="18" rx="3" fill="#1e293b"/>
<text x="314" y="287.0" font-size="11" font-weight="700" text-anchor="middle" fill="#cbd5e1">6</text>
<rect x="28" y="270.0" width="250" height="26" rx="5" fill="#c2410c" fill-opacity="0.16" stroke="#c2410c" stroke-width="1.6"/>
<text x="38" y="282.0" font-size="12.5" font-weight="800" fill="#f1f5f9">Mem[23]</text>
<text x="38" y="294.0" font-size="8.5" font-weight="500" fill="#94a3b8">Debug → LED D2 / J1 / CW</text>
<line x1="284" y1="317.0" x2="300" y2="317.0" stroke="#64748b" stroke-width="2"/>
<circle cx="284" cy="317.0" r="4" fill="#94a3b8"/>
<rect x="304" y="308.0" width="20" height="18" rx="3" fill="#1e293b"/>
<text x="314" y="321.0" font-size="11" font-weight="700" text-anchor="middle" fill="#cbd5e1">7</text>
<rect x="28" y="304.0" width="250" height="26" rx="5" fill="#b45309" fill-opacity="0.16" stroke="#b45309" stroke-width="1.6"/>
<text x="38" y="316.0" font-size="12.5" font-weight="800" fill="#f1f5f9">VDDIO</text>
<text x="38" y="328.0" font-size="8.5" font-weight="500" fill="#94a3b8">I/O supply (3.3 V)</text>
<line x1="284" y1="351.0" x2="300" y2="351.0" stroke="#64748b" stroke-width="2"/>
<circle cx="284" cy="351.0" r="4" fill="#94a3b8"/>
<rect x="304" y="342.0" width="20" height="18" rx="3" fill="#1e293b"/>
<text x="314" y="355.0" font-size="11" font-weight="700" text-anchor="middle" fill="#cbd5e1">8</text>
<rect x="28" y="338.0" width="250" height="26" rx="5" fill="#334155" fill-opacity="0.16" stroke="#334155" stroke-width="1.6"/>
<text x="38" y="350.0" font-size="12.5" font-weight="800" fill="#f1f5f9">GND</text>
<text x="38" y="362.0" font-size="8.5" font-weight="500" fill="#94a3b8">Ground</text>
<line x1="284" y1="385.0" x2="300" y2="385.0" stroke="#64748b" stroke-width="2"/>
<circle cx="284" cy="385.0" r="4" fill="#94a3b8"/>
<rect x="304" y="376.0" width="20" height="18" rx="3" fill="#1e293b"/>
<text x="314" y="389.0" font-size="11" font-weight="700" text-anchor="middle" fill="#cbd5e1">9</text>
<rect x="28" y="372.0" width="250" height="26" rx="5" fill="#0891b2" fill-opacity="0.16" stroke="#0891b2" stroke-width="1.6"/>
<text x="38" y="384.0" font-size="12.5" font-weight="800" fill="#f1f5f9">CLK</text>
<text x="38" y="396.0" font-size="8.5" font-weight="500" fill="#94a3b8">Clock (test point CLK)</text>
<line x1="284" y1="419.0" x2="300" y2="419.0" stroke="#64748b" stroke-width="2"/>
<circle cx="284" cy="419.0" r="4" fill="#94a3b8"/>
<rect x="304" y="410.0" width="20" height="18" rx="3" fill="#1e293b"/>
<text x="314" y="423.0" font-size="11" font-weight="700" text-anchor="middle" fill="#cbd5e1">10</text>
<rect x="28" y="406.0" width="250" height="26" rx="5" fill="#c2410c" fill-opacity="0.16" stroke="#c2410c" stroke-width="1.6"/>
<text x="38" y="418.0" font-size="12.5" font-weight="800" fill="#f1f5f9">Spare_In</text>
<text x="38" y="430.0" font-size="8.5" font-weight="500" fill="#94a3b8">Debug in → LED D3 / J1 / CW</text>
<line x1="284" y1="453.0" x2="300" y2="453.0" stroke="#64748b" stroke-width="2"/>
<circle cx="284" cy="453.0" r="4" fill="#94a3b8"/>
<rect x="304" y="444.0" width="20" height="18" rx="3" fill="#1e293b"/>
<text x="314" y="457.0" font-size="11" font-weight="700" text-anchor="middle" fill="#cbd5e1">11</text>
<rect x="28" y="440.0" width="250" height="26" rx="5" fill="#c2410c" fill-opacity="0.16" stroke="#c2410c" stroke-width="1.6"/>
<text x="38" y="452.0" font-size="12.5" font-weight="800" fill="#f1f5f9">UART_Rvalid</text>
<text x="38" y="464.0" font-size="8.5" font-weight="500" fill="#94a3b8">Debug → LED D4 / J1 / CW</text>
<line x1="284" y1="487.0" x2="300" y2="487.0" stroke="#64748b" stroke-width="2"/>
<circle cx="284" cy="487.0" r="4" fill="#94a3b8"/>
<rect x="304" y="478.0" width="20" height="18" rx="3" fill="#1e293b"/>
<text x="314" y="491.0" font-size="11" font-weight="700" text-anchor="middle" fill="#cbd5e1">12</text>
<rect x="28" y="474.0" width="250" height="26" rx="5" fill="#c2410c" fill-opacity="0.16" stroke="#c2410c" stroke-width="1.6"/>
<text x="38" y="486.0" font-size="12.5" font-weight="800" fill="#f1f5f9">Mem_Req</text>
<text x="38" y="498.0" font-size="8.5" font-weight="500" fill="#94a3b8">Debug → LED D5 / J1 / CW</text>
<line x1="284" y1="521.0" x2="300" y2="521.0" stroke="#64748b" stroke-width="2"/>
<circle cx="284" cy="521.0" r="4" fill="#94a3b8"/>
<rect x="304" y="512.0" width="20" height="18" rx="3" fill="#1e293b"/>
<text x="314" y="525.0" font-size="11" font-weight="700" text-anchor="middle" fill="#cbd5e1">13</text>
<rect x="28" y="508.0" width="250" height="26" rx="5" fill="#7c3aed" fill-opacity="0.16" stroke="#7c3aed" stroke-width="1.6"/>
<text x="38" y="520.0" font-size="12.5" font-weight="800" fill="#f1f5f9">Trig_CFG</text>
<text x="38" y="532.0" font-size="8.5" font-weight="500" fill="#94a3b8">Trigger config (J10 3-4 → CW TRIG)</text>
<line x1="284" y1="555.0" x2="300" y2="555.0" stroke="#64748b" stroke-width="2"/>
<circle cx="284" cy="555.0" r="4" fill="#94a3b8"/>
<rect x="304" y="546.0" width="20" height="18" rx="3" fill="#1e293b"/>
<text x="314" y="559.0" font-size="11" font-weight="700" text-anchor="middle" fill="#cbd5e1">14</text>
<rect x="28" y="542.0" width="250" height="26" rx="5" fill="#7c3aed" fill-opacity="0.16" stroke="#7c3aed" stroke-width="1.6"/>
<text x="38" y="554.0" font-size="12.5" font-weight="800" fill="#f1f5f9">Trigger</text>
<text x="38" y="566.0" font-size="8.5" font-weight="500" fill="#94a3b8">Normal trigger (J10 2-4 → CW TRIG)</text>
<line x1="450" y1="555.0" x2="466" y2="555.0" stroke="#64748b" stroke-width="2"/>
<circle cx="466" cy="555.0" r="4" fill="#94a3b8"/>
<rect x="426" y="546.0" width="20" height="18" rx="3" fill="#1e293b"/>
<text x="436" y="559.0" font-size="11" font-weight="700" text-anchor="middle" fill="#cbd5e1">15</text>
<rect x="472" y="542.0" width="250" height="26" rx="5" fill="#dc2626" fill-opacity="0.16" stroke="#dc2626" stroke-width="1.6"/>
<text x="712" y="554.0" font-size="12.5" font-weight="800" text-anchor="end" fill="#f1f5f9">SPI_RST</text>
<text x="712" y="566.0" font-size="8.5" font-weight="500" text-anchor="end" fill="#94a3b8">SPI reset (MCP2210 GPIO1)</text>
<line x1="450" y1="521.0" x2="466" y2="521.0" stroke="#64748b" stroke-width="2"/>
<circle cx="466" cy="521.0" r="4" fill="#94a3b8"/>
<rect x="426" y="512.0" width="20" height="18" rx="3" fill="#1e293b"/>
<text x="436" y="525.0" font-size="11" font-weight="700" text-anchor="middle" fill="#cbd5e1">16</text>
<rect x="472" y="508.0" width="250" height="26" rx="5" fill="#64748b" fill-opacity="0.16" stroke="#64748b" stroke-width="1.6"/>
<text x="712" y="520.0" font-size="12.5" font-weight="800" text-anchor="end" fill="#f1f5f9">ALIVE</text>
<text x="712" y="532.0" font-size="8.5" font-weight="500" text-anchor="end" fill="#94a3b8">Heartbeat → LED D1 (blinks = alive)</text>
<line x1="450" y1="487.0" x2="466" y2="487.0" stroke="#64748b" stroke-width="2"/>
<circle cx="466" cy="487.0" r="4" fill="#94a3b8"/>
<rect x="426" y="478.0" width="20" height="18" rx="3" fill="#1e293b"/>
<text x="436" y="491.0" font-size="11" font-weight="700" text-anchor="middle" fill="#cbd5e1">17</text>
<rect x="472" y="474.0" width="250" height="26" rx="5" fill="#1d4ed8" fill-opacity="0.16" stroke="#1d4ed8" stroke-width="1.6"/>
<text x="712" y="486.0" font-size="12.5" font-weight="800" text-anchor="end" fill="#f1f5f9">SPI_MOSI</text>
<text x="712" y="498.0" font-size="8.5" font-weight="500" text-anchor="end" fill="#94a3b8">MOSI (via JP6: module or CW)</text>
<line x1="450" y1="453.0" x2="466" y2="453.0" stroke="#64748b" stroke-width="2"/>
<circle cx="466" cy="453.0" r="4" fill="#94a3b8"/>
<rect x="426" y="444.0" width="20" height="18" rx="3" fill="#1e293b"/>
<text x="436" y="457.0" font-size="11" font-weight="700" text-anchor="middle" fill="#cbd5e1">18</text>
<rect x="472" y="440.0" width="250" height="26" rx="5" fill="#1d4ed8" fill-opacity="0.16" stroke="#1d4ed8" stroke-width="1.6"/>
<text x="712" y="452.0" font-size="12.5" font-weight="800" text-anchor="end" fill="#f1f5f9">S_Sel</text>
<text x="712" y="464.0" font-size="8.5" font-weight="500" text-anchor="end" fill="#94a3b8">Slave select (via J6: module or CW)</text>
<line x1="450" y1="419.0" x2="466" y2="419.0" stroke="#64748b" stroke-width="2"/>
<circle cx="466" cy="419.0" r="4" fill="#94a3b8"/>
<rect x="426" y="410.0" width="20" height="18" rx="3" fill="#1e293b"/>
<text x="436" y="423.0" font-size="11" font-weight="700" text-anchor="middle" fill="#cbd5e1">19</text>
<rect x="472" y="406.0" width="250" height="26" rx="5" fill="#1d4ed8" fill-opacity="0.16" stroke="#1d4ed8" stroke-width="1.6"/>
<text x="712" y="418.0" font-size="12.5" font-weight="800" text-anchor="end" fill="#f1f5f9">SPI_SCK</text>
<text x="712" y="430.0" font-size="8.5" font-weight="500" text-anchor="end" fill="#94a3b8">SCK (via JP4: module or CW)</text>
<line x1="450" y1="385.0" x2="466" y2="385.0" stroke="#64748b" stroke-width="2"/>
<circle cx="466" cy="385.0" r="4" fill="#94a3b8"/>
<rect x="426" y="376.0" width="20" height="18" rx="3" fill="#1e293b"/>
<text x="436" y="389.0" font-size="11" font-weight="700" text-anchor="middle" fill="#cbd5e1">20</text>
<rect x="472" y="372.0" width="250" height="26" rx="5" fill="#b45309" fill-opacity="0.16" stroke="#b45309" stroke-width="1.6"/>
<text x="712" y="384.0" font-size="12.5" font-weight="800" text-anchor="end" fill="#f1f5f9">VCORE</text>
<text x="712" y="396.0" font-size="8.5" font-weight="500" text-anchor="end" fill="#94a3b8">Core supply via R7 shunt</text>
<line x1="450" y1="351.0" x2="466" y2="351.0" stroke="#64748b" stroke-width="2"/>
<circle cx="466" cy="351.0" r="4" fill="#94a3b8"/>
<rect x="426" y="342.0" width="20" height="18" rx="3" fill="#1e293b"/>
<text x="436" y="355.0" font-size="11" font-weight="700" text-anchor="middle" fill="#cbd5e1">21</text>
<rect x="472" y="338.0" width="250" height="26" rx="5" fill="#c2410c" fill-opacity="0.16" stroke="#c2410c" stroke-width="1.6"/>
<text x="712" y="350.0" font-size="12.5" font-weight="800" text-anchor="end" fill="#f1f5f9">CoProc_Req</text>
<text x="712" y="362.0" font-size="8.5" font-weight="500" text-anchor="end" fill="#94a3b8">Debug → LED D6 / J1 / CW</text>
<line x1="450" y1="317.0" x2="466" y2="317.0" stroke="#64748b" stroke-width="2"/>
<circle cx="466" cy="317.0" r="4" fill="#94a3b8"/>
<rect x="426" y="308.0" width="20" height="18" rx="3" fill="#1e293b"/>
<text x="436" y="321.0" font-size="11" font-weight="700" text-anchor="middle" fill="#cbd5e1">22</text>
<rect x="472" y="304.0" width="250" height="26" rx="5" fill="#b45309" fill-opacity="0.16" stroke="#b45309" stroke-width="1.6"/>
<text x="712" y="316.0" font-size="12.5" font-weight="800" text-anchor="end" fill="#f1f5f9">VDDIO</text>
<text x="712" y="328.0" font-size="8.5" font-weight="500" text-anchor="end" fill="#94a3b8">I/O supply (3.3 V)</text>
<line x1="450" y1="283.0" x2="466" y2="283.0" stroke="#64748b" stroke-width="2"/>
<circle cx="466" cy="283.0" r="4" fill="#94a3b8"/>
<rect x="426" y="274.0" width="20" height="18" rx="3" fill="#1e293b"/>
<text x="436" y="287.0" font-size="11" font-weight="700" text-anchor="middle" fill="#cbd5e1">23</text>
<rect x="472" y="270.0" width="250" height="26" rx="5" fill="#7c3aed" fill-opacity="0.16" stroke="#7c3aed" stroke-width="1.6"/>
<text x="712" y="282.0" font-size="12.5" font-weight="800" text-anchor="end" fill="#f1f5f9">Trig_In</text>
<text x="712" y="294.0" font-size="8.5" font-weight="500" text-anchor="end" fill="#94a3b8">Trigger input (J6 ↔ CW GPIO3)</text>
<line x1="450" y1="249.0" x2="466" y2="249.0" stroke="#64748b" stroke-width="2"/>
<circle cx="466" cy="249.0" r="4" fill="#94a3b8"/>
<rect x="426" y="240.0" width="20" height="18" rx="3" fill="#1e293b"/>
<text x="436" y="253.0" font-size="11" font-weight="700" text-anchor="middle" fill="#cbd5e1">24</text>
<rect x="472" y="236.0" width="250" height="26" rx="5" fill="#4d7c0f" fill-opacity="0.16" stroke="#4d7c0f" stroke-width="1.6"/>
<text x="712" y="248.0" font-size="12.5" font-weight="800" text-anchor="end" fill="#f1f5f9">PC2</text>
<text x="712" y="260.0" font-size="8.5" font-weight="500" text-anchor="end" fill="#94a3b8">IBEX program-counter bit (JP2)</text>
<line x1="450" y1="215.0" x2="466" y2="215.0" stroke="#64748b" stroke-width="2"/>
<circle cx="466" cy="215.0" r="4" fill="#94a3b8"/>
<rect x="426" y="206.0" width="20" height="18" rx="3" fill="#1e293b"/>
<text x="436" y="219.0" font-size="11" font-weight="700" text-anchor="middle" fill="#cbd5e1">25</text>
<rect x="472" y="202.0" width="250" height="26" rx="5" fill="#4d7c0f" fill-opacity="0.16" stroke="#4d7c0f" stroke-width="1.6"/>
<text x="712" y="214.0" font-size="12.5" font-weight="800" text-anchor="end" fill="#f1f5f9">PC3</text>
<text x="712" y="226.0" font-size="8.5" font-weight="500" text-anchor="end" fill="#94a3b8">IBEX program-counter bit (JP2)</text>
<line x1="450" y1="181.0" x2="466" y2="181.0" stroke="#64748b" stroke-width="2"/>
<circle cx="466" cy="181.0" r="4" fill="#94a3b8"/>
<rect x="426" y="172.0" width="20" height="18" rx="3" fill="#1e293b"/>
<text x="436" y="185.0" font-size="11" font-weight="700" text-anchor="middle" fill="#cbd5e1">26</text>
<rect x="472" y="168.0" width="250" height="26" rx="5" fill="#4d7c0f" fill-opacity="0.16" stroke="#4d7c0f" stroke-width="1.6"/>
<text x="712" y="180.0" font-size="12.5" font-weight="800" text-anchor="end" fill="#f1f5f9">PC4</text>
<text x="712" y="192.0" font-size="8.5" font-weight="500" text-anchor="end" fill="#94a3b8">IBEX program-counter bit (JP2)</text>
<line x1="450" y1="147.0" x2="466" y2="147.0" stroke="#64748b" stroke-width="2"/>
<circle cx="466" cy="147.0" r="4" fill="#94a3b8"/>
<rect x="426" y="138.0" width="20" height="18" rx="3" fill="#1e293b"/>
<text x="436" y="151.0" font-size="11" font-weight="700" text-anchor="middle" fill="#cbd5e1">27</text>
<rect x="472" y="134.0" width="250" height="26" rx="5" fill="#7c3aed" fill-opacity="0.16" stroke="#7c3aed" stroke-width="1.6"/>
<text x="712" y="146.0" font-size="12.5" font-weight="800" text-anchor="end" fill="#f1f5f9">Rsv_Trig</text>
<text x="712" y="158.0" font-size="8.5" font-weight="500" text-anchor="end" fill="#94a3b8">Reserve trigger (J10 4-6 → CW TRIG)</text>
<line x1="450" y1="113.0" x2="466" y2="113.0" stroke="#64748b" stroke-width="2"/>
<circle cx="466" cy="113.0" r="4" fill="#94a3b8"/>
<rect x="426" y="104.0" width="20" height="18" rx="3" fill="#1e293b"/>
<text x="436" y="117.0" font-size="11" font-weight="700" text-anchor="middle" fill="#cbd5e1">28</text>
<rect x="472" y="100.0" width="250" height="26" rx="5" fill="#b45309" fill-opacity="0.16" stroke="#b45309" stroke-width="1.6"/>
<text x="712" y="112.0" font-size="12.5" font-weight="800" text-anchor="end" fill="#f1f5f9">VCORE</text>
<text x="712" y="124.0" font-size="8.5" font-weight="500" text-anchor="end" fill="#94a3b8">Core supply via R7 shunt</text>
<rect x="30" y="644" width="960" height="66" rx="8" fill="#0e1729" stroke="#1e293b" stroke-width="1"/>
<rect x="46.0" y="652" width="15" height="15" rx="3" fill="#b45309"/>
<text x="67.0" y="664" font-size="11" font-weight="600" fill="#cbd5e1">Power</text>
<rect x="232.0" y="652" width="15" height="15" rx="3" fill="#334155"/>
<text x="253.0" y="664" font-size="11" font-weight="600" fill="#cbd5e1">Ground</text>
<rect x="418.0" y="652" width="15" height="15" rx="3" fill="#0891b2"/>
<text x="439.0" y="664" font-size="11" font-weight="600" fill="#cbd5e1">Clock</text>
<rect x="604.0" y="652" width="15" height="15" rx="3" fill="#0f766e"/>
<text x="625.0" y="664" font-size="11" font-weight="600" fill="#cbd5e1">UART</text>
<rect x="790.0" y="652" width="15" height="15" rx="3" fill="#1d4ed8"/>
<text x="811.0" y="664" font-size="11" font-weight="600" fill="#cbd5e1">SPI</text>
<rect x="46.0" y="678" width="15" height="15" rx="3" fill="#dc2626"/>
<text x="67.0" y="690" font-size="11" font-weight="600" fill="#cbd5e1">Reset</text>
<rect x="232.0" y="678" width="15" height="15" rx="3" fill="#7c3aed"/>
<text x="253.0" y="690" font-size="11" font-weight="600" fill="#cbd5e1">Trigger</text>
<rect x="418.0" y="678" width="15" height="15" rx="3" fill="#c2410c"/>
<text x="439.0" y="690" font-size="11" font-weight="600" fill="#cbd5e1">Debug monitor</text>
<rect x="604.0" y="678" width="15" height="15" rx="3" fill="#4d7c0f"/>
<text x="625.0" y="690" font-size="11" font-weight="600" fill="#cbd5e1">Core control</text>
<rect x="790.0" y="678" width="15" height="15" rx="3" fill="#64748b"/>
<text x="811.0" y="690" font-size="11" font-weight="600" fill="#cbd5e1">Status</text>
</svg>